<!-- Generated by IcoMoon.io -->
<svg version="1.1" xmlns="http://www.w3.org/2000/svg" width="32" height="32" viewBox="0 0 32 32">
	<title>prev</title>
	<path
		d="M26.944 15.36h-20.713l7.581-9.965c0.046-0.060 0.082-0.131 0.107-0.21s0.037-0.163 0.037-0.248c0-0.085-0.013-0.169-0.037-0.248s-0.061-0.15-0.107-0.21c-0.046-0.060-0.1-0.108-0.16-0.14s-0.124-0.049-0.188-0.049c-0.065 0-0.129 0.017-0.188 0.049s-0.114 0.080-0.16 0.14l-8.403 11.066c-0.023 0.030-0.043 0.063-0.061 0.099-0.008 0.015-0.016 0.031-0.022 0.048l-0.024 0.064-0.015 0.064c-0.001 0.018-0.001 0.036 0 0.054-0.012 0.082-0.012 0.167 0 0.25-0.001 0.018-0.001 0.036 0 0.054l0.015 0.064 0.024 0.064c0.006 0.017 0.014 0.033 0.022 0.048 0.017 0.036 0.038 0.069 0.061 0.099l8.403 11.066c0.045 0.061 0.099 0.109 0.159 0.142s0.124 0.050 0.189 0.050 0.129-0.017 0.189-0.050c0.060-0.033 0.114-0.081 0.159-0.142 0.045-0.059 0.081-0.13 0.106-0.208s0.037-0.161 0.037-0.245c0-0.084-0.013-0.167-0.037-0.245s-0.060-0.148-0.106-0.208l-7.581-9.974h20.713c0.129 0 0.253-0.067 0.344-0.187s0.142-0.283 0.142-0.453c0-0.17-0.051-0.333-0.142-0.452s-0.215-0.188-0.344-0.188z">
	</path>
</svg>